<svg width="261" height="260" viewBox="0 0 261 260" fill="none" xmlns="http://www.w3.org/2000/svg">
<path d="M32.8516 65H54.5182H227.852" stroke="#B184FF" stroke-width="15" stroke-linecap="round" stroke-linejoin="round"/>
<path d="M206.178 64.9984V216.665C206.178 222.411 203.896 227.922 199.832 231.986C195.769 236.049 190.258 238.332 184.512 238.332H76.1784C70.432 238.332 64.921 236.049 60.8577 231.986C56.7944 227.922 54.5117 222.411 54.5117 216.665V64.9984M87.0117 64.9984V43.3317C87.0117 37.5853 89.2945 32.0743 93.3577 28.0111C97.421 23.9478 102.932 21.665 108.678 21.665H152.012C157.758 21.665 163.269 23.9478 167.332 28.0111C171.396 32.0743 173.678 37.5853 173.678 43.3317V64.9984" stroke="#B184FF" stroke-width="15" stroke-linecap="round" stroke-linejoin="round"/>
<path d="M108.691 119.165V184.165" stroke="#B184FF" stroke-width="15" stroke-linecap="round" stroke-linejoin="round"/>
<path d="M152.012 119.165V184.165" stroke="#B184FF" stroke-width="15" stroke-linecap="round" stroke-linejoin="round"/>
</svg>
