<svg width="193" height="193" viewBox="0 0 193 193" fill="none" xmlns="http://www.w3.org/2000/svg">
<path d="M8.37891 32.0947V80.2429H56.5271" stroke="#843CFF" stroke-width="11.1111" stroke-linecap="round" stroke-linejoin="round"/>
<path d="M184.906 160.497V112.349H136.758" stroke="#843CFF" stroke-width="11.1111" stroke-linecap="round" stroke-linejoin="round"/>
<path d="M164.78 72.2258C160.71 60.7247 153.793 50.442 144.675 42.3372C135.556 34.2324 124.533 28.5696 112.633 25.8773C100.734 23.185 88.3469 23.5508 76.6274 26.9407C64.9078 30.3306 54.238 36.634 45.6135 45.2629L8.37891 80.2505M184.922 112.349L147.688 147.337C139.063 155.966 128.393 162.269 116.674 165.659C104.954 169.049 92.5668 169.415 80.6676 166.723C68.7684 164.03 57.7452 158.367 48.6265 150.263C39.5078 142.158 32.5907 131.875 28.5209 120.374" stroke="#843CFF" stroke-width="11.1111" stroke-linecap="round" stroke-linejoin="round"/>
</svg>
