<svg width="261" height="260" viewBox="0 0 261 260" fill="none" xmlns="http://www.w3.org/2000/svg">
<path d="M195.345 108.335H181.695C177.642 92.6374 169.267 78.3915 157.522 67.2159C145.777 56.0403 131.132 48.3832 115.253 45.1146C99.3735 41.846 82.8956 43.0971 67.6917 48.7255C52.4878 54.354 39.1674 64.1343 29.2442 76.9549C19.321 89.7756 13.1928 105.123 11.5561 121.252C9.91938 137.382 12.8397 153.647 19.9852 168.2C27.1307 182.752 38.2149 195.009 51.9783 203.577C65.7416 212.145 81.6323 216.68 97.8446 216.668H195.345C209.711 216.668 223.488 210.961 233.646 200.803C243.804 190.645 249.511 176.868 249.511 162.502C249.511 148.136 243.804 134.358 233.646 124.2C223.488 114.042 209.711 108.335 195.345 108.335Z" stroke="white" stroke-width="15" stroke-linecap="round" stroke-linejoin="round"/>
</svg>
